<svg width="1201" height="1201" viewBox="0 0 1201 1201" fill="none" xmlns="http://www.w3.org/2000/svg">
<path d="M600.867 1200.5C932.238 1200.5 1200.87 931.871 1200.87 600.5C1200.87 269.129 932.238 0.5 600.867 0.5C269.496 0.5 0.867188 269.129 0.867188 600.5C0.867188 931.871 269.496 1200.5 600.867 1200.5Z" fill="#FEFEFE"/>
<path d="M1008.3 501.114C1008.3 501.114 924.706 394.25 819.62 388.138C751.807 384.136 735.379 393.196 732.434 399.943C728.226 364.955 698.322 202.86 491.729 168.508C518.102 358.089 627.02 308.691 691.161 439.36C691.161 439.36 582.921 292.234 404.969 346.403C404.969 346.403 469.83 482.569 661.676 510.391C661.676 510.391 677.05 563.086 681.684 572.362C681.684 572.362 386.224 418.279 296.512 714.004C229.747 698.882 207.352 771.359 284.09 820.869C284.09 820.869 297.147 769.019 328.943 753.63C328.943 753.63 260.711 829.726 340.946 920.859H628.925C635.883 909.334 666.68 848.69 590.514 802.784C644.278 802.016 688.042 903.432 735.128 921.558H803.61C805.927 915.928 810.771 899.066 799.395 883.895C781.857 863.778 743.46 866.502 743.802 829.299C757.062 656.245 1016.55 709.387 1008.3 501.114Z" fill="#171717"/>
</svg>
